<svg width="70" height="41" viewBox="0 0 70 41" fill="none" xmlns="http://www.w3.org/2000/svg">
<path d="M6.568 21.12C5.976 21.12 5.552 20.992 5.296 20.736C5.04 20.464 4.912 19.96 4.912 19.224C4.912 18.728 4.96 18.096 5.056 17.328C5.168 16.544 5.344 15.472 5.584 14.112C6 11.6 6.328 9.424 6.568 7.584C6.712 6.432 6.784 5.472 6.784 4.704C6.784 3.984 6.52 3.624 5.992 3.624C5.576 3.624 5.072 3.84 4.48 4.272C3.904 4.688 3.264 5.36 2.56 6.288C2.336 6.592 2.088 6.744 1.816 6.744C1.592 6.744 1.392 6.64 1.216 6.432C1.056 6.208 0.976 5.96 0.976 5.688C0.976 5.432 1.024 5.176 1.12 4.92C1.232 4.648 1.408 4.344 1.648 4.008C2.416 2.936 3.272 2.112 4.216 1.536C5.16 0.943999 6.104 0.647999 7.048 0.647999C7.928 0.647999 8.6 0.927999 9.064 1.488C9.544 2.048 9.784 2.864 9.784 3.936C9.784 4.368 9.744 4.88 9.664 5.472C9.584 6.048 9.512 6.52 9.448 6.888C9.384 7.256 9.336 7.512 9.304 7.656C10.216 5.048 11.24 3.232 12.376 2.208C13.512 1.168 14.76 0.647999 16.12 0.647999C17.16 0.647999 17.976 1.016 18.568 1.752C19.176 2.488 19.48 3.528 19.48 4.872C19.48 5.4 19.408 6.056 19.264 6.84C20.064 4.632 21 3.048 22.072 2.088C23.144 1.128 24.376 0.647999 25.768 0.647999C26.888 0.647999 27.744 1.008 28.336 1.728C28.944 2.448 29.248 3.456 29.248 4.752C29.248 5.456 29.144 6.312 28.936 7.32L27.472 14.184C27.312 14.984 27.232 15.672 27.232 16.248C27.232 16.92 27.384 17.424 27.688 17.76C28.008 18.096 28.448 18.264 29.008 18.264C29.536 18.264 30.048 18.088 30.544 17.736C31.056 17.384 31.656 16.8 32.344 15.984C32.536 15.76 32.752 15.648 32.992 15.648C33.2 15.648 33.36 15.744 33.472 15.936C33.6 16.128 33.664 16.392 33.664 16.728C33.664 17.352 33.512 17.848 33.208 18.216C32.376 19.224 31.552 19.96 30.736 20.424C29.92 20.888 29.064 21.12 28.168 21.12C26.808 21.12 25.744 20.72 24.976 19.92C24.208 19.104 23.824 18.016 23.824 16.656C23.824 15.712 24.016 14.344 24.4 12.552L25.36 8.16C25.392 8.016 25.448 7.76 25.528 7.392C25.608 7.024 25.672 6.68 25.72 6.36C25.768 6.024 25.792 5.696 25.792 5.376C25.792 4.816 25.68 4.4 25.456 4.128C25.248 3.84 24.944 3.696 24.544 3.696C23.792 3.696 23 4.184 22.168 5.16C21.352 6.12 20.568 7.72 19.816 9.96C19.08 12.2 18.48 15.112 18.016 18.696C17.904 19.656 17.704 20.304 17.416 20.64C17.144 20.96 16.696 21.12 16.072 21.12C15.528 21.12 15.128 20.992 14.872 20.736C14.632 20.48 14.512 20 14.512 19.296C14.512 18.64 14.6 17.784 14.776 16.728C14.952 15.656 15.176 14.4 15.448 12.96C16.184 9.088 16.552 6.592 16.552 5.472C16.552 4.864 16.432 4.416 16.192 4.128C15.968 3.84 15.624 3.696 15.16 3.696C14.376 3.696 13.568 4.144 12.736 5.04C11.904 5.92 11.088 7.496 10.288 9.768C9.504 12.024 8.848 15.08 8.32 18.936C8.208 19.752 8.04 20.32 7.816 20.64C7.608 20.96 7.192 21.12 6.568 21.12ZM34.6821 21.12C33.6901 21.12 32.8981 20.76 32.3061 20.04C31.7141 19.32 31.4181 18.376 31.4181 17.208C31.4181 15.928 31.7141 14.72 32.3061 13.584C32.8981 12.432 33.6821 11.512 34.6581 10.824C35.6501 10.12 36.6981 9.768 37.8021 9.768C38.1541 9.768 38.3861 9.84 38.4981 9.984C38.6261 10.112 38.7301 10.352 38.8101 10.704C39.1461 10.64 39.4981 10.608 39.8661 10.608C40.6501 10.608 41.0421 10.888 41.0421 11.448C41.0421 11.784 40.9221 12.584 40.6821 13.848C40.3141 15.688 40.1301 16.968 40.1301 17.688C40.1301 17.928 40.1861 18.12 40.2981 18.264C40.4261 18.408 40.5861 18.48 40.7781 18.48C41.0821 18.48 41.4501 18.288 41.8821 17.904C42.3141 17.504 42.8981 16.864 43.6341 15.984C43.8261 15.76 44.0421 15.648 44.2821 15.648C44.4901 15.648 44.6501 15.744 44.7621 15.936C44.8901 16.128 44.9541 16.392 44.9541 16.728C44.9541 17.368 44.8021 17.864 44.4981 18.216C43.8421 19.032 43.1461 19.72 42.4101 20.28C41.6741 20.84 40.9621 21.12 40.2741 21.12C39.7461 21.12 39.2581 20.944 38.8101 20.592C38.3781 20.224 38.0501 19.728 37.8261 19.104C36.9941 20.448 35.9461 21.12 34.6821 21.12ZM35.5461 18.696C35.8981 18.696 36.2341 18.488 36.5541 18.072C36.8741 17.656 37.1061 17.104 37.2501 16.416L38.1381 12C37.4661 12.016 36.8421 12.272 36.2661 12.768C35.7061 13.248 35.2581 13.888 34.9221 14.688C34.5861 15.488 34.4181 16.336 34.4181 17.232C34.4181 17.728 34.5141 18.096 34.7061 18.336C34.9141 18.576 35.1941 18.696 35.5461 18.696ZM44.7076 21.12C44.0996 21.12 43.6676 20.8 43.4116 20.16C43.1716 19.52 43.0516 18.496 43.0516 17.088C43.0516 15.008 43.3476 13.032 43.9396 11.16C44.0836 10.696 44.3156 10.36 44.6356 10.152C44.9716 9.928 45.4356 9.816 46.0276 9.816C46.3476 9.816 46.5716 9.856 46.6996 9.936C46.8276 10.016 46.8916 10.168 46.8916 10.392C46.8916 10.648 46.7716 11.224 46.5316 12.12C46.3716 12.76 46.2436 13.32 46.1476 13.8C46.0516 14.28 45.9716 14.872 45.9076 15.576C46.4356 14.2 47.0276 13.08 47.6836 12.216C48.3396 11.352 48.9796 10.736 49.6036 10.368C50.2436 10 50.8276 9.816 51.3556 9.816C52.3956 9.816 52.9156 10.336 52.9156 11.376C52.9156 11.584 52.8436 12.088 52.6996 12.888C52.5716 13.528 52.5076 13.928 52.5076 14.088C52.5076 14.648 52.7076 14.928 53.1076 14.928C53.5556 14.928 54.1316 14.576 54.8356 13.872C55.0436 13.664 55.2596 13.56 55.4836 13.56C55.6916 13.56 55.8516 13.656 55.9636 13.848C56.0916 14.024 56.1556 14.264 56.1556 14.568C56.1556 15.16 55.9956 15.624 55.6756 15.96C55.2276 16.424 54.6996 16.824 54.0916 17.16C53.4996 17.48 52.8676 17.64 52.1956 17.64C51.3476 17.64 50.6996 17.424 50.2516 16.992C49.8196 16.56 49.6036 15.976 49.6036 15.24C49.6036 15 49.6276 14.76 49.6756 14.52C49.7076 14.2 49.7236 13.984 49.7236 13.872C49.7236 13.616 49.6356 13.488 49.4596 13.488C49.2196 13.488 48.8996 13.76 48.4996 14.304C48.1156 14.832 47.7316 15.536 47.3476 16.416C46.9636 17.296 46.6516 18.224 46.4116 19.2C46.2356 19.952 46.0276 20.464 45.7876 20.736C45.5636 20.992 45.2036 21.12 44.7076 21.12ZM57.0694 8.232C56.3974 8.232 55.8934 8.08 55.5574 7.776C55.2214 7.456 55.0534 7.016 55.0534 6.456C55.0534 5.896 55.2694 5.432 55.7014 5.064C56.1494 4.68 56.7014 4.488 57.3574 4.488C57.9494 4.488 58.4294 4.632 58.7974 4.92C59.1654 5.208 59.3494 5.616 59.3494 6.144C59.3494 6.784 59.1414 7.296 58.7254 7.68C58.3094 8.048 57.7574 8.232 57.0694 8.232ZM56.8774 21.12C55.8374 21.12 55.0774 20.752 54.5974 20.016C54.1334 19.28 53.9014 18.304 53.9014 17.088C53.9014 16.368 53.9894 15.448 54.1654 14.328C54.3574 13.192 54.5974 12.136 54.8854 11.16C55.0294 10.648 55.2214 10.296 55.4614 10.104C55.7014 9.912 56.0854 9.816 56.6134 9.816C57.4294 9.816 57.8374 10.088 57.8374 10.632C57.8374 11.032 57.6854 11.96 57.3814 13.416C56.9974 15.176 56.8054 16.368 56.8054 16.992C56.8054 17.472 56.8694 17.84 56.9974 18.096C57.1254 18.352 57.3414 18.48 57.6454 18.48C57.9334 18.48 58.2934 18.28 58.7254 17.88C59.1574 17.48 59.7334 16.848 60.4534 15.984C60.6454 15.76 60.8614 15.648 61.1014 15.648C61.3094 15.648 61.4694 15.744 61.5814 15.936C61.7094 16.128 61.7734 16.392 61.7734 16.728C61.7734 17.368 61.6214 17.864 61.3174 18.216C59.7334 20.152 58.2534 21.12 56.8774 21.12ZM62.5917 21.12C61.6797 21.12 60.9357 20.76 60.3597 20.04C59.7997 19.32 59.5197 18.376 59.5197 17.208C59.5197 15.928 59.8157 14.72 60.4077 13.584C60.9997 12.432 61.7837 11.512 62.7597 10.824C63.7517 10.12 64.7997 9.768 65.9037 9.768C66.2557 9.768 66.4877 9.84 66.5997 9.984C66.7277 10.112 66.8317 10.352 66.9117 10.704C67.2157 10.64 67.5517 10.608 67.9197 10.608C68.3037 10.608 68.5997 10.704 68.8077 10.896C69.0157 11.088 69.1197 11.36 69.1197 11.712C69.1197 12.08 69.0397 12.72 68.8797 13.632C68.7037 14.608 68.5677 15.544 68.4717 16.44C68.3757 17.32 68.3277 18.312 68.3277 19.416C68.3277 20.024 68.1997 20.464 67.9437 20.736C67.7037 20.992 67.3037 21.12 66.7437 21.12C66.1997 21.12 65.7917 20.992 65.5197 20.736C65.2637 20.464 65.1357 20.032 65.1357 19.44L65.1597 19.056C64.6637 20.432 63.8077 21.12 62.5917 21.12ZM63.5277 18.696C63.9757 18.696 64.3837 18.384 64.7517 17.76C65.1197 17.136 65.4477 16.024 65.7357 14.424L66.1917 12C65.5357 12.016 64.9277 12.272 64.3677 12.768C63.8077 13.248 63.3597 13.888 63.0237 14.688C62.6877 15.488 62.5197 16.336 62.5197 17.232C62.5197 17.712 62.6077 18.08 62.7837 18.336C62.9757 18.576 63.2237 18.696 63.5277 18.696ZM8.696 40L7.752 36.816H3.832L2.888 40H1.496L4.92 28.832H6.696L10.12 40H8.696ZM5.864 30.256H5.72L4.152 35.648H7.432L5.864 30.256ZM14.5778 40L11.6178 31.744H12.9138L14.0978 35.2L15.3778 38.928H15.4418L16.7218 35.2L17.9058 31.744H19.1698L16.2098 40H14.5778ZM28.1075 40C27.6062 40 27.2488 39.872 27.0355 39.616C26.8222 39.36 26.6888 39.04 26.6355 38.656H26.5555C26.3742 39.136 26.0808 39.5147 25.6755 39.792C25.2808 40.0587 24.7475 40.192 24.0755 40.192C23.2115 40.192 22.5235 39.968 22.0115 39.52C21.4995 39.072 21.2435 38.4587 21.2435 37.68C21.2435 36.912 21.5208 36.32 22.0755 35.904C22.6408 35.488 23.5475 35.28 24.7955 35.28H26.5555V34.464C26.5555 33.856 26.3848 33.4027 26.0435 33.104C25.7022 32.7947 25.2168 32.64 24.5875 32.64C24.0328 32.64 23.5795 32.752 23.2275 32.976C22.8755 33.1893 22.5928 33.4827 22.3795 33.856L21.5155 33.216C21.6222 33.0027 21.7662 32.7947 21.9475 32.592C22.1288 32.3893 22.3528 32.2133 22.6195 32.064C22.8862 31.904 23.1902 31.7813 23.5315 31.696C23.8728 31.6 24.2515 31.552 24.6675 31.552C25.6382 31.552 26.4062 31.7973 26.9715 32.288C27.5475 32.7787 27.8355 33.4613 27.8355 34.336V38.88H28.9875V40H28.1075ZM24.2995 39.12C24.6302 39.12 24.9288 39.0827 25.1955 39.008C25.4728 38.9227 25.7128 38.816 25.9155 38.688C26.1182 38.5493 26.2728 38.3893 26.3795 38.208C26.4968 38.016 26.5555 37.8133 26.5555 37.6V36.24H24.7955C24.0275 36.24 23.4675 36.3467 23.1155 36.56C22.7635 36.7733 22.5875 37.0827 22.5875 37.488V37.824C22.5875 38.2507 22.7368 38.576 23.0355 38.8C23.3448 39.0133 23.7662 39.12 24.2995 39.12ZM34.9813 40C34.3519 40 33.8879 39.824 33.5893 39.472C33.3013 39.12 33.1573 38.6667 33.1573 38.112V32.832H30.4053V31.744H32.4533C32.7306 31.744 32.9226 31.6907 33.0293 31.584C33.1466 31.4667 33.2053 31.2693 33.2053 30.992V28.832H34.4373V31.744H38.1973V32.832H34.4373V38.912H38.1973V40H34.9813ZM47.295 40C46.7937 40 46.4363 39.872 46.223 39.616C46.0097 39.36 45.8763 39.04 45.823 38.656H45.743C45.5617 39.136 45.2683 39.5147 44.863 39.792C44.4683 40.0587 43.935 40.192 43.263 40.192C42.399 40.192 41.711 39.968 41.199 39.52C40.687 39.072 40.431 38.4587 40.431 37.68C40.431 36.912 40.7083 36.32 41.263 35.904C41.8283 35.488 42.735 35.28 43.983 35.28H45.743V34.464C45.743 33.856 45.5723 33.4027 45.231 33.104C44.8897 32.7947 44.4043 32.64 43.775 32.64C43.2203 32.64 42.767 32.752 42.415 32.976C42.063 33.1893 41.7803 33.4827 41.567 33.856L40.703 33.216C40.8097 33.0027 40.9537 32.7947 41.135 32.592C41.3163 32.3893 41.5403 32.2133 41.807 32.064C42.0737 31.904 42.3777 31.7813 42.719 31.696C43.0603 31.6 43.439 31.552 43.855 31.552C44.8257 31.552 45.5937 31.7973 46.159 32.288C46.735 32.7787 47.023 33.4613 47.023 34.336V38.88H48.175V40H47.295ZM43.487 39.12C43.8177 39.12 44.1163 39.0827 44.383 39.008C44.6603 38.9227 44.9003 38.816 45.103 38.688C45.3057 38.5493 45.4603 38.3893 45.567 38.208C45.6843 38.016 45.743 37.8133 45.743 37.6V36.24H43.983C43.215 36.24 42.655 36.3467 42.303 36.56C41.951 36.7733 41.775 37.0827 41.775 37.488V37.824C41.775 38.2507 41.9243 38.576 42.223 38.8C42.5323 39.0133 42.9537 39.12 43.487 39.12ZM50.2008 38.912H52.6168V32.832H50.2008V31.744H53.8968V33.824H53.9768C54.1474 33.1733 54.4674 32.6667 54.9368 32.304C55.4168 31.9307 56.0248 31.744 56.7608 31.744H57.9128V33.024H56.3608C55.6248 33.024 55.0274 33.2373 54.5688 33.664C54.1208 34.0907 53.8968 34.6507 53.8968 35.344V38.912H57.0968V40H50.2008V38.912ZM63.5065 40.192C62.9092 40.192 62.3705 40.0907 61.8905 39.888C61.4212 39.6853 61.0158 39.3973 60.6745 39.024C60.3438 38.64 60.0878 38.1867 59.9065 37.664C59.7252 37.1307 59.6345 36.5387 59.6345 35.888C59.6345 35.2267 59.7252 34.6293 59.9065 34.096C60.0985 33.5627 60.3598 33.1093 60.6905 32.736C61.0212 32.352 61.4158 32.0587 61.8745 31.856C62.3438 31.6533 62.8612 31.552 63.4265 31.552C63.9812 31.552 64.4825 31.6533 64.9305 31.856C65.3892 32.0587 65.7785 32.3413 66.0985 32.704C66.4185 33.056 66.6638 33.4773 66.8345 33.968C67.0052 34.4587 67.0905 34.9973 67.0905 35.584V36.192H60.9785V36.576C60.9785 36.9387 61.0372 37.2747 61.1545 37.584C61.2718 37.8933 61.4372 38.16 61.6505 38.384C61.8745 38.608 62.1412 38.784 62.4505 38.912C62.7705 39.0293 63.1225 39.088 63.5065 39.088C64.0612 39.088 64.5412 38.96 64.9465 38.704C65.3518 38.448 65.6612 38.096 65.8745 37.648L66.8185 38.288C66.5732 38.8427 66.1625 39.3013 65.5865 39.664C65.0212 40.016 64.3278 40.192 63.5065 40.192ZM63.4265 32.608C63.0745 32.608 62.7492 32.672 62.4505 32.8C62.1518 32.928 61.8905 33.104 61.6665 33.328C61.4532 33.552 61.2825 33.8187 61.1545 34.128C61.0372 34.4267 60.9785 34.7573 60.9785 35.12V35.232H65.7145V35.056C65.7145 34.6933 65.6558 34.3627 65.5385 34.064C65.4318 33.7653 65.2772 33.5093 65.0745 33.296C64.8825 33.072 64.6425 32.9013 64.3545 32.784C64.0772 32.6667 63.7678 32.608 63.4265 32.608Z" fill="white"/>
</svg>
